M48
; MosquitoZapper PTH Drill File
METRIC,TZ
FMAT,2
T01C0.900
T02C1.000
T03C1.200
T04C2.500
%
T01
X77.900Y62.000
X88.100Y62.000
T02
X22.000Y40.000
X22.000Y42.540
X22.000Y45.080
X22.000Y47.620
X22.000Y50.160
X22.000Y52.700
X22.000Y55.240
X22.000Y57.780
X22.000Y60.320
X22.000Y62.860
X22.000Y65.400
X22.000Y67.940
X22.000Y70.480
X22.000Y73.020
X22.000Y75.560
X22.000Y78.100
X22.000Y34.920
X22.000Y37.460
X22.000Y32.380
X22.000Y29.840
X27.000Y40.000
X27.000Y42.540
X27.000Y45.080
X27.000Y47.620
X27.000Y50.160
X27.000Y52.700
X27.000Y55.240
X27.000Y57.780
X27.000Y60.320
X27.000Y62.860
X27.000Y65.400
X27.000Y67.940
X27.000Y70.480
X27.000Y73.020
X27.000Y75.560
X27.000Y78.100
X27.000Y34.920
X27.000Y37.460
X27.000Y32.380
X27.000Y29.840
X55.000Y12.000
X55.000Y14.540
X55.000Y17.080
X55.000Y19.620
X55.000Y22.160
X55.000Y24.700
X55.000Y27.240
X55.000Y29.780
X60.000Y12.000
X60.000Y14.540
X60.000Y17.080
X60.000Y19.620
X60.000Y22.160
X60.000Y24.700
X60.000Y27.240
X60.000Y29.780
X55.000Y38.000
X55.000Y40.540
X55.000Y43.080
X55.000Y45.620
X55.000Y48.160
X55.000Y50.700
X55.000Y53.240
X55.000Y55.780
X60.000Y38.000
X60.000Y40.540
X60.000Y43.080
X60.000Y45.620
X60.000Y48.160
X60.000Y50.700
X60.000Y53.240
X60.000Y55.780
X95.000Y12.000
X95.000Y14.540
X95.000Y17.080
X95.000Y19.620
X95.000Y38.000
X95.000Y40.540
X95.000Y43.080
X95.000Y45.620
X95.000Y55.000
X95.000Y57.540
X95.000Y60.080
X8.000Y54.000
X8.000Y56.540
X8.000Y59.080
X8.000Y40.000
X8.000Y42.540
X8.000Y46.000
X8.000Y48.540
X48.000Y68.000
X48.000Y70.540
X48.000Y73.080
X48.000Y75.620
X48.000Y78.160
X60.000Y68.000
X60.000Y70.540
X60.000Y73.080
X60.000Y75.620
X60.000Y78.160
X72.000Y68.000
X72.000Y70.540
X72.000Y73.080
X72.000Y75.620
X72.000Y78.160
X8.000Y62.000
X8.000Y64.540
X8.000Y68.000
X8.000Y70.540
X8.000Y73.080
X48.000Y10.000
X48.000Y12.540
X48.000Y15.080
X48.000Y17.620
X72.000Y10.000
X72.000Y12.540
X72.000Y15.080
X72.000Y17.620
X79.500Y58.500
X86.500Y58.500
X79.200Y51.500
X83.000Y51.500
X86.800Y51.500
X8.750Y30.000
X11.250Y30.000
X8.250Y42.000
X11.750Y42.000
X8.750Y52.000
X11.250Y52.000
X63.750Y8.000
X66.250Y8.000
X63.750Y35.000
X66.250Y35.000
T03
X81.100Y68.000
X84.900Y68.000
T04
X8.000Y72.000
X16.000Y72.000
M30